<?xml version="1.0" standalone="no"?>
<!DOCTYPE svg PUBLIC "-//W3C//DTD SVG 20010904//EN"
 "http://www.w3.org/TR/2001/REC-SVG-20010904/DTD/svg10.dtd">
<svg version="1.0" xmlns="http://www.w3.org/2000/svg"
 width="500.000000pt" height="500.000000pt" viewBox="0 0 500.000000 500.000000"
 preserveAspectRatio="xMidYMid meet">
<metadata>
Created by potrace 1.14, written by Peter Selinger 2001-2017
</metadata>
<g transform="translate(0.000000,500.000000) scale(0.100000,-0.100000)"
fill="#000000" stroke="none">
<path d="M1197 3883 c-3 -5 -8 -27 -11 -49 -8 -50 -14 -81 -20 -102 -3 -9 -7
-34 -11 -56 -3 -21 -7 -42 -10 -46 -2 -3 -7 -22 -10 -41 -7 -38 -32 -123 -46
-154 -4 -11 -18 -45 -30 -75 -39 -102 -149 -287 -163 -273 -3 4 -6 1 -6 -6 0
-13 -80 -97 -80 -84 0 4 -4 3 -8 -3 -11 -15 -82 -57 -122 -72 -71 -25 -171
-34 -235 -19 -22 5 -49 10 -60 11 -11 1 -35 10 -52 19 -18 10 -34 16 -36 15
-7 -6 -143 68 -160 86 -9 10 -17 15 -17 11 0 -5 -5 -4 -12 3 -28 28 -30 4 -7
-98 5 -25 11 -54 14 -65 9 -42 35 -131 43 -150 27 -58 35 -81 34 -88 -1 -4 5
-15 13 -23 8 -9 13 -20 10 -25 -4 -5 -3 -9 2 -9 4 0 14 -15 22 -32 8 -18 32
-62 53 -97 21 -34 38 -67 38 -72 0 -5 5 -9 10 -9 6 0 10 -7 10 -15 0 -8 5 -15
10 -15 6 0 10 -7 10 -15 0 -8 5 -15 10 -15 6 0 10 -6 10 -14 0 -8 4 -16 8 -18
5 -1 28 -32 52 -68 24 -36 48 -68 54 -72 7 -5 7 -8 1 -8 -7 0 -7 -3 0 -8 17
-12 64 -89 91 -149 43 -95 65 -170 77 -263 2 -8 5 -19 8 -25 9 -16 9 -306 0
-352 -7 -34 -5 -43 5 -43 8 0 13 3 12 7 -1 5 13 40 31 78 50 106 98 222 99
238 0 4 7 18 15 30 8 12 20 40 27 62 7 22 16 44 21 49 5 6 9 16 9 23 0 8 9 32
20 55 11 22 17 44 15 49 -3 4 -1 9 5 11 5 1 11 12 13 23 2 11 10 34 16 50 7
17 17 39 21 50 9 23 7 27 40 -80 11 -38 28 -84 36 -102 7 -17 14 -34 14 -38 0
-13 114 -240 127 -253 7 -7 13 -17 13 -22 0 -5 6 -15 13 -22 6 -7 23 -29 37
-48 13 -19 35 -47 49 -63 l25 -27 70 75 c124 130 150 159 201 220 28 33 55 66
60 73 6 7 18 22 28 33 9 10 17 24 17 29 0 5 3 10 8 10 4 0 21 23 37 51 17 27
37 58 46 69 8 10 24 36 35 57 10 21 24 41 29 45 6 4 6 8 1 8 -5 0 -2 8 7 18
46 52 199 448 231 602 3 14 15 66 26 115 11 50 23 106 26 125 3 19 7 46 9 59
2 13 7 45 11 70 3 25 8 57 10 71 2 14 7 48 9 75 3 28 8 70 11 95 7 59 14 175
18 276 2 45 6 87 10 93 4 6 3 11 -2 11 -6 0 -8 10 -5 23 4 20 3 20 -7 4 -7
-10 -10 -27 -7 -38 3 -10 2 -19 -2 -19 -4 0 -8 -6 -8 -12 -2 -41 -20 -122 -42
-195 -5 -18 -8 -33 -5 -33 2 0 -5 -18 -16 -40 -11 -22 -17 -40 -13 -40 4 0 2
-5 -5 -12 -7 -7 -12 -18 -12 -25 0 -7 -18 -51 -40 -98 -22 -47 -40 -88 -41
-93 0 -4 -7 -11 -15 -15 -8 -4 -14 -14 -14 -21 0 -7 -8 -21 -17 -32 -10 -10
-31 -37 -48 -59 -87 -116 -220 -211 -345 -246 -25 -7 -52 -14 -60 -17 -8 -2
-86 -6 -173 -8 -148 -4 -158 -3 -153 13 3 10 10 37 16 60 l10 42 37 -16 c50
-20 69 -24 128 -24 63 1 84 5 139 29 60 27 127 90 156 149 32 63 32 64 33 158
0 68 -4 88 -27 133 -30 59 -92 132 -111 132 -7 0 -15 5 -17 10 -10 31 -183 61
-239 41 -31 -11 -34 -7 -44 64 -13 93 -20 136 -32 190 -3 17 -7 39 -9 50 -4
26 -45 179 -49 183 -2 2 -5 0 -8 -5z"/>
<path d="M505 3742 c-16 -2 -48 -8 -70 -14 -22 -7 -43 -11 -47 -10 -5 1 -8 -2
-8 -7 0 -5 -10 -13 -22 -17 -50 -16 -144 -143 -152 -206 -1 -3 -4 -10 -8 -14
-4 -4 -3 -13 3 -20 5 -7 6 -15 1 -18 -20 -12 15 -172 44 -201 9 -8 13 -15 9
-15 -9 0 56 -63 93 -89 31 -22 90 -44 122 -46 8 0 20 -3 25 -6 6 -3 28 -4 50
-2 22 2 50 4 63 5 12 1 22 5 22 8 0 4 18 13 40 20 22 7 40 17 40 22 0 4 4 8
10 8 9 0 44 33 82 79 58 69 78 270 32 322 -8 8 -14 21 -14 27 0 11 -9 24 -57
77 -26 30 -79 65 -87 58 -3 -3 -6 -2 -6 4 0 11 -30 21 -85 30 -16 2 -34 5 -40
6 -5 2 -23 1 -40 -1z"/>
<path d="M2231 3714 c0 -11 3 -14 6 -6 3 7 2 16 -1 19 -3 4 -6 -2 -5 -13z"/>
<path d="M4688 3375 c-2 -2 -15 -6 -28 -8 -36 -6 -90 -30 -90 -39 0 -4 -7 -8
-15 -8 -8 0 -15 -4 -15 -10 0 -5 -6 -10 -12 -10 -7 0 -38 -27 -68 -59 -71 -76
-80 -88 -80 -101 0 -5 -5 -10 -11 -10 -5 0 -7 -4 -4 -10 3 -5 3 -10 -2 -10 -9
0 -26 -35 -53 -112 -17 -51 -25 -83 -36 -158 -3 -19 -7 -44 -9 -55 -2 -11 -4
-28 -4 -37 -1 -20 -45 -70 -54 -61 -4 3 -9 -2 -13 -11 -3 -9 -10 -14 -14 -11
-12 7 -50 -44 -50 -66 0 -26 21 -69 32 -63 4 3 11 -2 14 -10 3 -9 10 -16 16
-16 5 0 15 -6 22 -13 36 -36 39 -57 39 -336 0 -153 4 -287 9 -301 5 -14 11
-33 14 -44 5 -27 31 -64 52 -75 25 -13 161 -8 193 8 38 19 62 66 64 130 1 31
-2 64 -7 73 -5 10 -4 19 2 23 5 3 6 16 2 28 -4 12 -8 128 -7 257 l0 235 27 13
c15 7 59 14 99 17 39 2 76 8 82 14 6 6 17 11 25 11 33 0 63 54 50 91 -16 46
-72 66 -195 68 -51 1 -63 4 -68 20 -11 35 -4 151 9 151 5 0 7 3 3 6 -5 5 10
59 30 104 3 8 5 18 5 23 -1 4 3 7 8 7 6 0 10 5 10 11 0 21 60 98 92 117 18 11
47 22 63 25 62 10 96 37 100 79 0 3 3 9 7 13 16 17 -25 64 -79 90 -29 14 -146
29 -155 20z"/>
<path d="M3283 2866 c-43 -28 -55 -67 -58 -191 -1 -56 -5 -107 -9 -113 -3 -6
-2 -13 3 -16 7 -5 8 -41 1 -41 -1 0 -1 -112 -2 -250 0 -267 8 -436 27 -535 3
-19 8 -53 10 -75 14 -146 26 -184 71 -214 73 -50 240 -26 262 37 5 15 8 38 6
52 -4 38 -14 112 -19 140 -21 121 -18 137 40 211 49 63 92 114 116 139 14 15
29 35 32 44 4 9 11 16 17 16 5 0 10 5 10 10 0 11 9 23 45 63 11 12 26 34 34
50 8 15 18 27 23 27 4 0 8 7 8 15 0 8 5 15 10 15 6 0 10 6 10 14 0 7 7 19 15
26 8 7 12 16 9 21 -3 5 -1 9 4 9 5 0 23 33 40 73 37 86 44 111 48 157 1 20 3
40 4 45 2 6 2 12 0 15 -1 3 -3 18 -5 34 -2 16 -7 36 -11 45 -4 9 -8 22 -10 30
-9 43 -129 140 -184 148 -16 2 -52 10 -60 13 -14 6 -37 5 -52 -3 -11 -5 -18
-4 -18 3 0 7 -6 8 -18 1 -13 -7 -23 -6 -32 2 -9 9 -11 9 -6 0 10 -18 -104 -28
-144 -13 -3 1 -9 2 -14 1 -4 -1 -14 3 -21 9 -23 19 -146 10 -182 -14z m418
-278 c13 -23 16 -107 7 -149 -9 -37 -80 -179 -90 -179 -4 0 -8 -5 -8 -12 0
-17 -41 -58 -57 -58 -8 0 -12 4 -8 9 3 5 1 12 -4 15 -6 4 -6 18 -1 35 5 19 4
33 -3 40 -9 9 -9 14 1 20 18 11 19 15 5 33 -7 8 -10 18 -6 21 3 4 6 29 6 57
-1 27 3 50 9 50 5 0 7 4 3 9 -3 5 7 19 21 30 15 12 23 21 19 21 -5 0 10 18 33
40 46 46 57 48 73 18z"/>
<path d="M2650 2838 c-87 -35 -110 -47 -155 -83 -97 -77 -166 -181 -215 -326
-25 -74 -31 -109 -35 -199 -9 -275 164 -454 430 -444 193 7 372 80 394 161 11
41 -5 67 -56 93 -63 31 -148 25 -218 -17 -81 -48 -113 -49 -161 -7 -27 25 -57
90 -58 128 -1 27 4 32 48 48 26 10 58 20 70 22 11 3 21 5 21 6 0 1 9 3 20 5
33 5 157 43 197 60 21 8 40 15 43 15 22 -1 105 92 106 119 6 113 -47 253 -126
333 -43 44 -63 56 -135 85 -33 13 -138 13 -170 1z m66 -306 c18 -12 35 -78 28
-106 -3 -15 -9 -25 -12 -22 -3 3 -10 2 -16 -3 -6 -5 -28 -12 -48 -16 -30 -6
-39 -4 -44 9 -7 17 25 93 53 126 19 22 23 23 39 12z"/>
</g>
</svg>
